<mxfile host="app.diagrams.net" modified="2023-07-25T09:46:28.380Z" agent="5.0 (Windows NT 10.0; Win64; x64) AppleWebKit/537.36 (KHTML, like Gecko) Chrome/113.0.0.0 Safari/537.36 OPR/99.0.0.0" etag="vGWaqODaXLFnnJR3YXik" version="20.8.13" type="github">
  <diagram name="Page-1" id="DEzhVGjmHXPEMYQmBYQK">
    <mxGraphModel dx="1362" dy="658" grid="1" gridSize="10" guides="1" tooltips="1" connect="1" arrows="1" fold="1" page="1" pageScale="1" pageWidth="827" pageHeight="1169" math="0" shadow="0">
      <root>
        <mxCell id="0" />
        <mxCell id="1" parent="0" />
        <mxCell id="AnTT8imweI-ge0LxJTdf-3" value="" style="rounded=1;whiteSpace=wrap;html=1;fillColor=none;" vertex="1" parent="1">
          <mxGeometry x="255.01" y="120" width="350" height="270" as="geometry" />
        </mxCell>
        <mxCell id="AnTT8imweI-ge0LxJTdf-4" value="" style="verticalLabelPosition=bottom;verticalAlign=top;html=1;shadow=0;dashed=0;strokeWidth=1;shape=mxgraph.android.phone2;strokeColor=#c0c0c0;" vertex="1" parent="1">
          <mxGeometry x="399.5900000000001" y="500" width="56.41" height="110" as="geometry" />
        </mxCell>
        <mxCell id="AnTT8imweI-ge0LxJTdf-5" value="" style="shape=cylinder3;whiteSpace=wrap;html=1;boundedLbl=1;backgroundOutline=1;size=15;" vertex="1" parent="1">
          <mxGeometry x="290" y="140" width="60" height="80" as="geometry" />
        </mxCell>
        <mxCell id="AnTT8imweI-ge0LxJTdf-6" value="" style="shape=image;html=1;verticalLabelPosition=bottom;verticalAlign=top;imageAspect=1;aspect=fixed;image=img/clipart/Gear_128x128.png" vertex="1" parent="1">
          <mxGeometry x="401.8" y="240" width="52" height="61" as="geometry" />
        </mxCell>
        <mxCell id="AnTT8imweI-ge0LxJTdf-7" value="" style="ellipse;whiteSpace=wrap;html=1;aspect=fixed;" vertex="1" parent="1">
          <mxGeometry x="330" y="375" width="30" height="30" as="geometry" />
        </mxCell>
        <mxCell id="AnTT8imweI-ge0LxJTdf-10" value="" style="ellipse;whiteSpace=wrap;html=1;aspect=fixed;" vertex="1" parent="1">
          <mxGeometry x="412.8" y="375" width="30" height="30" as="geometry" />
        </mxCell>
        <mxCell id="AnTT8imweI-ge0LxJTdf-11" value="" style="ellipse;whiteSpace=wrap;html=1;aspect=fixed;" vertex="1" parent="1">
          <mxGeometry x="500" y="375" width="30" height="30" as="geometry" />
        </mxCell>
        <mxCell id="AnTT8imweI-ge0LxJTdf-12" value="" style="endArrow=classic;startArrow=classic;html=1;rounded=0;entryX=1.01;entryY=0.877;entryDx=0;entryDy=0;entryPerimeter=0;" edge="1" parent="1" source="AnTT8imweI-ge0LxJTdf-6" target="AnTT8imweI-ge0LxJTdf-5">
          <mxGeometry width="50" height="50" relative="1" as="geometry">
            <mxPoint x="450" y="270" as="sourcePoint" />
            <mxPoint x="500" y="220" as="targetPoint" />
          </mxGeometry>
        </mxCell>
        <mxCell id="AnTT8imweI-ge0LxJTdf-13" value="Base de donnÃ©e" style="text;html=1;strokeColor=none;fillColor=none;align=center;verticalAlign=middle;whiteSpace=wrap;rounded=0;" vertex="1" parent="1">
          <mxGeometry x="270" y="230" width="107.99" height="30" as="geometry" />
        </mxCell>
        <mxCell id="AnTT8imweI-ge0LxJTdf-14" value="Service API" style="text;html=1;strokeColor=none;fillColor=none;align=center;verticalAlign=middle;whiteSpace=wrap;rounded=0;" vertex="1" parent="1">
          <mxGeometry x="470" y="250" width="107.99" height="30" as="geometry" />
        </mxCell>
        <mxCell id="AnTT8imweI-ge0LxJTdf-15" value="" style="endArrow=none;html=1;rounded=0;entryX=0;entryY=1;entryDx=0;entryDy=0;exitX=0.5;exitY=0;exitDx=0;exitDy=0;" edge="1" parent="1" source="AnTT8imweI-ge0LxJTdf-7" target="AnTT8imweI-ge0LxJTdf-6">
          <mxGeometry width="50" height="50" relative="1" as="geometry">
            <mxPoint x="390" y="260" as="sourcePoint" />
            <mxPoint x="440" y="210" as="targetPoint" />
          </mxGeometry>
        </mxCell>
        <mxCell id="AnTT8imweI-ge0LxJTdf-16" value="" style="endArrow=none;html=1;rounded=0;exitX=0.5;exitY=1;exitDx=0;exitDy=0;entryX=0.5;entryY=0;entryDx=0;entryDy=0;" edge="1" parent="1" source="AnTT8imweI-ge0LxJTdf-6" target="AnTT8imweI-ge0LxJTdf-10">
          <mxGeometry width="50" height="50" relative="1" as="geometry">
            <mxPoint x="390" y="260" as="sourcePoint" />
            <mxPoint x="440" y="210" as="targetPoint" />
          </mxGeometry>
        </mxCell>
        <mxCell id="AnTT8imweI-ge0LxJTdf-17" value="" style="endArrow=none;html=1;rounded=0;entryX=1;entryY=1;entryDx=0;entryDy=0;exitX=0.5;exitY=0;exitDx=0;exitDy=0;" edge="1" parent="1" source="AnTT8imweI-ge0LxJTdf-11" target="AnTT8imweI-ge0LxJTdf-6">
          <mxGeometry width="50" height="50" relative="1" as="geometry">
            <mxPoint x="430" y="340" as="sourcePoint" />
            <mxPoint x="480" y="290" as="targetPoint" />
          </mxGeometry>
        </mxCell>
        <mxCell id="AnTT8imweI-ge0LxJTdf-18" value="EndPoints" style="text;html=1;strokeColor=none;fillColor=none;align=center;verticalAlign=middle;whiteSpace=wrap;rounded=0;" vertex="1" parent="1">
          <mxGeometry x="255.01" y="345" width="107.99" height="30" as="geometry" />
        </mxCell>
        <mxCell id="AnTT8imweI-ge0LxJTdf-20" value="" style="endArrow=classic;startArrow=classic;html=1;rounded=0;entryX=0.5;entryY=1;entryDx=0;entryDy=0;exitX=0.497;exitY=0.025;exitDx=0;exitDy=0;exitPerimeter=0;" edge="1" parent="1" source="AnTT8imweI-ge0LxJTdf-4" target="AnTT8imweI-ge0LxJTdf-10">
          <mxGeometry width="50" height="50" relative="1" as="geometry">
            <mxPoint x="450" y="370" as="sourcePoint" />
            <mxPoint x="500" y="320" as="targetPoint" />
          </mxGeometry>
        </mxCell>
        <mxCell id="AnTT8imweI-ge0LxJTdf-21" value="Application mobile" style="text;html=1;strokeColor=none;fillColor=none;align=center;verticalAlign=middle;whiteSpace=wrap;rounded=0;" vertex="1" parent="1">
          <mxGeometry x="461.01" y="540" width="107.99" height="30" as="geometry" />
        </mxCell>
        <mxCell id="AnTT8imweI-ge0LxJTdf-22" value="Serveur Freshtech" style="text;html=1;strokeColor=none;fillColor=none;align=center;verticalAlign=middle;whiteSpace=wrap;rounded=0;" vertex="1" parent="1">
          <mxGeometry x="373.8" y="90" width="107.99" height="30" as="geometry" />
        </mxCell>
      </root>
    </mxGraphModel>
  </diagram>
</mxfile>
